<svg width="87" height="76" viewBox="0 0 87 76" fill="none" xmlns="http://www.w3.org/2000/svg">
<g id="Group 48">
<path id="Vector" d="M36.3571 5.22201L2.0845 62.4374C1.37788 63.6611 1.00399 65.0485 1.00003 66.4615C0.996075 67.8746 1.36219 69.2641 2.06195 70.4917C2.7617 71.7194 3.77071 72.7424 4.98859 73.459C6.20647 74.1756 7.59076 74.5609 9.00375 74.5764H77.5489C78.9619 74.5609 80.3462 74.1756 81.564 73.459C82.7819 72.7424 83.7909 71.7194 84.4907 70.4917C85.1904 69.2641 85.5565 67.8746 85.5526 66.4615C85.5486 65.0485 85.1747 63.6611 84.4681 62.4374L50.1956 5.22201C49.4742 4.03282 48.4586 3.04961 47.2466 2.36725C46.0346 1.68489 44.6672 1.32642 43.2763 1.32642C41.8854 1.32642 40.518 1.68489 39.3061 2.36725C38.0941 3.04961 37.0784 4.03282 36.3571 5.22201Z" stroke="white" stroke-width="2" stroke-linecap="round" stroke-linejoin="round"/>
<path id="Vector_2" d="M43.2763 26.0203V42.2057" stroke="white" stroke-width="2" stroke-linecap="round" stroke-linejoin="round"/>
<path id="Vector_3" d="M43.2763 58.3912H43.3177" stroke="white" stroke-width="4" stroke-linecap="round" stroke-linejoin="round"/>
</g>
</svg>
