<svg width="82" height="98" viewBox="0 0 82 98" fill="none" xmlns="http://www.w3.org/2000/svg">
<g id="Capa 2">
<g id="Outline">
<g id="Cupcake">
<path id="Vector" d="M81.0214 49.4958C81.0214 46.516 79.8543 43.6582 77.7767 41.5511C75.6991 39.4441 72.8813 38.2603 69.9431 38.2603H68.7361C70.2384 36.6714 71.2471 34.6697 71.6369 32.5042C72.0267 30.3386 71.7805 28.1046 70.9287 26.0798C70.077 24.055 68.6573 22.3287 66.8462 21.1155C65.0351 19.9022 62.9123 19.2555 60.7418 19.2557H59.7681C59.3316 16.6034 57.847 14.6917 55.3424 13.5288C52.6066 12.2598 48.9252 12.1006 46.0223 12.1006C44.4886 12.1387 42.994 11.6068 41.82 10.6051C40.9167 9.78904 40.3796 8.74037 40.3796 7.77739C40.3796 5.4801 41.3512 3.76835 41.7878 3.50924C42.2413 3.51465 42.6783 3.33713 43.0028 3.01574C43.3272 2.69434 43.5125 2.25539 43.5178 1.79546C43.5232 1.33552 43.3481 0.892274 43.0312 0.563225C42.7143 0.234175 42.2815 0.0462771 41.828 0.0408661C41.3331 0.00414216 29.6312 -0.75074 24.0187 6.21254C21.3572 9.50749 20.5405 13.8899 21.5906 19.2557H20.3011C18.1306 19.2555 16.0078 19.9019 14.1963 21.1145C12.3848 22.3272 10.9644 24.0528 10.1114 26.077C9.2584 28.1012 9.0104 30.3349 9.39817 32.5008C9.78594 34.6667 10.7924 36.6695 12.2926 38.2603H11.0856C8.28237 38.2585 5.58263 39.3344 3.53064 41.2714C1.47865 43.2084 0.226989 45.8623 0.0279724 48.6982C-0.171044 51.534 0.697381 54.341 2.45819 56.5532C4.219 58.7654 6.74126 60.2183 9.51652 60.6191L17.2856 96.6331C17.3695 97.0194 17.5809 97.3651 17.8849 97.613C18.1889 97.8608 18.5673 97.9959 18.9573 97.996H62.0856C62.4756 97.9959 62.8539 97.8608 63.1579 97.613C63.4619 97.3651 63.6734 97.0194 63.7573 96.6331L71.5123 60.6171C74.1501 60.2309 76.5627 58.8945 78.3088 56.8524C80.0549 54.8102 81.0178 52.1989 81.0214 49.4958ZM48.8186 94.5276L50.9027 60.7313H59.1646L54.9964 94.5276H48.8186ZM26.0464 94.5276L21.8783 60.7313H30.1402L32.2243 94.5276H26.0464ZM31.5504 60.7313H39.8184V94.5276H33.6345L31.5504 60.7313ZM41.2265 60.7313H49.4925L47.4084 94.5276H41.2265V60.7313ZM13.0631 60.7313H20.46L24.6282 94.5276H20.3393L13.0631 60.7313ZM60.7096 94.5276H56.4146L60.5828 60.7313H67.9878L60.7096 94.5276ZM69.9814 57.263H11.0595C9.02833 57.2575 7.0825 56.434 5.65003 54.9736C4.21757 53.5131 3.41582 51.5354 3.42115 49.4754C3.42649 47.4155 4.23847 45.442 5.67848 43.9892C7.11849 42.5364 9.06856 41.7233 11.0997 41.7287H37.2213C37.6748 41.7287 38.1097 41.546 38.4304 41.2208C38.751 40.8956 38.9312 40.4545 38.9312 39.9945C38.9312 39.5346 38.751 39.0935 38.4304 38.7683C38.1097 38.443 37.6748 38.2603 37.2213 38.2603H20.3011C18.2912 38.2273 16.3746 37.3943 14.9648 35.9411C13.5549 34.4879 12.7648 32.5309 12.7648 30.4922C12.7648 28.4535 13.5549 26.4965 14.9648 25.0433C16.3746 23.59 18.2912 22.7571 20.3011 22.724H23.3568C23.4947 22.7609 23.6367 22.7794 23.7793 22.7791C23.921 22.7785 24.0622 22.7607 24.1997 22.7261C24.4174 22.6701 24.6221 22.5712 24.8021 22.435C24.9821 22.2988 25.1339 22.1279 25.2488 21.9322C25.3636 21.7365 25.4394 21.5198 25.4717 21.2944C25.504 21.069 25.4921 20.8393 25.4369 20.6185L25.4268 20.5777C25.4268 20.5777 25.4268 20.5594 25.4268 20.5492C25.4268 20.539 25.4268 20.5349 25.4268 20.5267C23.9945 15.3017 24.421 11.2254 26.6801 8.41189C29.412 5.01493 34.3245 3.92341 37.7584 3.60309C37.249 4.93081 36.9858 6.34251 36.9819 7.76718C36.9819 9.73804 37.9274 11.7171 39.577 13.1942C41.3659 14.75 43.6518 15.5927 46.0083 15.5649C53.0994 15.5649 55.5778 16.94 56.2678 19.2557H45.8192C45.3657 19.2557 44.9307 19.4384 44.6101 19.7636C44.2894 20.0888 44.1092 20.5299 44.1092 20.9899C44.1092 21.4498 44.2894 21.8909 44.6101 22.2161C44.9307 22.5413 45.3657 22.724 45.8192 22.724H60.7418C62.7517 22.7571 64.6682 23.59 66.0781 25.0433C67.4879 26.4965 68.2781 28.4535 68.2781 30.4922C68.2781 32.5309 67.4879 34.4879 66.0781 35.9411C64.6682 37.3943 62.7517 38.2273 60.7418 38.2603C60.2883 38.2603 59.8533 38.443 59.5327 38.7683C59.212 39.0935 59.0318 39.5346 59.0318 39.9945C59.0318 40.4545 59.212 40.8956 59.5327 41.2208C59.8533 41.546 60.2883 41.7287 60.7418 41.7287H69.9431C71.9743 41.7236 73.9243 42.537 75.3641 43.9899C76.8039 45.4429 77.6156 47.4165 77.6207 49.4764C77.6258 51.5364 76.8238 53.5141 75.3911 54.9743C73.9585 56.4346 72.0125 57.2578 69.9814 57.263Z" fill="black" fill-opacity="0.5"/>
<path id="Vector_2" d="M48.3255 46.9211C47.7 46.9207 47.0883 47.1084 46.568 47.4606C46.0477 47.8128 45.6421 48.3135 45.4024 48.8995C45.1628 49.4856 45.0999 50.1305 45.2217 50.7528C45.3434 51.375 45.6445 51.9467 46.0867 52.3954C46.5288 52.8442 47.0923 53.1498 47.7058 53.2738C48.3193 53.3977 48.9552 53.3343 49.5332 53.0916C50.1112 52.8489 50.6052 52.4378 50.9527 51.9104C51.3003 51.3829 51.4858 50.7627 51.4858 50.1283C51.4848 49.2784 51.1515 48.4635 50.5591 47.8624C49.9667 47.2612 49.1635 46.9227 48.3255 46.9211ZM48.3255 51.9074C47.9785 51.9078 47.6391 51.8038 47.3504 51.6085C47.0616 51.4133 46.8365 51.1356 46.7034 50.8105C46.5703 50.4855 46.5353 50.1277 46.6028 49.7825C46.6702 49.4372 46.8371 49.1201 47.0824 48.871C47.3276 48.622 47.6402 48.4524 47.9805 48.3836C48.3209 48.3148 48.6737 48.3499 48.9943 48.4845C49.315 48.6191 49.589 48.8471 49.7819 49.1397C49.9747 49.4323 50.0777 49.7764 50.0777 50.1283C50.0785 50.3624 50.0338 50.5943 49.9461 50.8108C49.8585 51.0274 49.7296 51.2243 49.5668 51.3903C49.4041 51.5562 49.2107 51.6881 48.9977 51.7782C48.7847 51.8683 48.5563 51.915 48.3255 51.9155V51.9074Z" fill="black" fill-opacity="0.5"/>
<path id="Vector_3" d="M14.765 46.7374C14.765 46.3275 14.6451 45.9267 14.4205 45.5858C14.1959 45.2449 13.8767 44.9793 13.5033 44.8224C13.1298 44.6655 12.7188 44.6244 12.3224 44.7044C11.9259 44.7844 11.5617 44.9818 11.2759 45.2717C10.99 45.5616 10.7954 45.931 10.7165 46.3331C10.6377 46.7351 10.6781 47.1519 10.8328 47.5307C10.9875 47.9095 11.2495 48.2332 11.5856 48.461C11.9217 48.6887 12.3169 48.8103 12.7211 48.8103C13.263 48.8098 13.7826 48.5912 14.1657 48.2026C14.5489 47.814 14.7644 47.287 14.765 46.7374ZM12.7211 47.3822C12.5954 47.3822 12.4725 47.3443 12.3679 47.2735C12.2634 47.2027 12.1819 47.102 12.1338 46.9842C12.0857 46.8664 12.0731 46.7367 12.0976 46.6117C12.1222 46.4866 12.1827 46.3717 12.2716 46.2816C12.3605 46.1914 12.4738 46.13 12.5971 46.1051C12.7204 46.0802 12.8482 46.093 12.9644 46.1418C13.0805 46.1906 13.1798 46.2732 13.2497 46.3793C13.3195 46.4853 13.3568 46.6099 13.3568 46.7374C13.3571 46.8222 13.3408 46.9061 13.3089 46.9845C13.2771 47.0628 13.2303 47.134 13.1712 47.1939C13.1121 47.2538 13.0419 47.3013 12.9647 47.3336C12.8874 47.3659 12.8047 47.3824 12.7211 47.3822Z" fill="black" fill-opacity="0.5"/>
<path id="Vector_4" d="M70.4461 44.6646C70.042 44.665 69.647 44.7869 69.3112 45.0149C68.9753 45.2429 68.7137 45.5668 68.5593 45.9456C68.4049 46.3244 68.3647 46.7411 68.4438 47.1431C68.5229 47.5451 68.7177 47.9142 69.0036 48.2039C69.2896 48.4936 69.6537 48.6908 70.0502 48.7706C70.4466 48.8504 70.8574 48.8093 71.2308 48.6523C71.6041 48.4954 71.9232 48.2297 72.1477 47.8889C72.3722 47.548 72.492 47.1473 72.492 46.7374C72.4915 46.1875 72.2757 45.6603 71.8921 45.2716C71.5085 44.8829 70.9884 44.6646 70.4461 44.6646ZM70.4461 47.3822C70.3205 47.3818 70.1978 47.3436 70.0935 47.2725C69.9892 47.2014 69.9081 47.1006 69.8603 46.9828C69.8125 46.8649 69.8002 46.7353 69.8249 46.6104C69.8497 46.4855 69.9104 46.3708 69.9994 46.2809C70.0883 46.1909 70.2016 46.1297 70.3249 46.105C70.4481 46.0803 70.5758 46.0932 70.6919 46.142C70.8079 46.1909 70.9071 46.2735 70.9769 46.3795C71.0466 46.4855 71.0838 46.61 71.0838 46.7374C71.0838 46.8223 71.0673 46.9063 71.0353 46.9846C71.0032 47.063 70.9562 47.1342 70.8969 47.194C70.8377 47.2539 70.7674 47.3014 70.69 47.3337C70.6127 47.3659 70.5298 47.3824 70.4461 47.3822Z" fill="black" fill-opacity="0.5"/>
<path id="Vector_5" d="M29.629 26.3148C29.1802 26.3148 28.7415 26.4498 28.3683 26.7027C27.9952 26.9556 27.7043 27.315 27.5326 27.7355C27.3608 28.156 27.3159 28.6188 27.4035 29.0652C27.491 29.5116 27.7071 29.9217 28.0245 30.2435C28.3418 30.5654 28.7462 30.7846 29.1863 30.8734C29.6265 30.9622 30.0828 30.9166 30.4974 30.7424C30.912 30.5682 31.2664 30.2733 31.5158 29.8948C31.7651 29.5163 31.8982 29.0714 31.8982 28.6162C31.8977 28.006 31.6584 27.421 31.233 26.9895C30.8076 26.558 30.2307 26.3154 29.629 26.3148ZM29.629 29.4874C29.4587 29.4874 29.2921 29.4361 29.1505 29.3401C29.0088 29.244 28.8985 29.1075 28.8334 28.9479C28.7683 28.7882 28.7513 28.6125 28.7847 28.4431C28.8181 28.2736 28.9003 28.118 29.0209 27.996C29.1415 27.874 29.2951 27.791 29.4623 27.7575C29.6294 27.724 29.8026 27.7416 29.9599 27.808C30.1172 27.8744 30.2515 27.9867 30.3459 28.1305C30.4403 28.2744 30.4904 28.4434 30.49 28.6162C30.4874 28.846 30.3955 29.0655 30.2343 29.2271C30.0731 29.3887 29.8556 29.4792 29.629 29.4792V29.4874Z" fill="black" fill-opacity="0.5"/>
<path id="Vector_6" d="M33.0553 11.6518C32.6065 11.6518 32.1678 11.7867 31.7946 12.0396C31.4215 12.2925 31.1306 12.6519 30.9589 13.0724C30.7871 13.493 30.7422 13.9557 30.8297 14.4021C30.9173 14.8485 31.1334 15.2586 31.4508 15.5804C31.7681 15.9023 32.1724 16.1215 32.6126 16.2103C33.0528 16.2991 33.509 16.2535 33.9237 16.0793C34.3383 15.9051 34.6927 15.6102 34.942 15.2317C35.1914 14.8532 35.3245 14.4083 35.3245 13.9531C35.3245 13.3428 35.0854 12.7574 34.6598 12.3258C34.2343 11.8942 33.6571 11.6518 33.0553 11.6518ZM33.0553 14.8243C32.8849 14.8243 32.7184 14.773 32.5767 14.677C32.4351 14.581 32.3248 14.4445 32.2597 14.2848C32.1945 14.1251 32.1776 13.9494 32.211 13.78C32.2444 13.6105 32.3266 13.455 32.4472 13.3329C32.5678 13.2109 32.7214 13.1279 32.8886 13.0944C33.0557 13.0609 33.2289 13.0785 33.3862 13.1449C33.5435 13.2113 33.6778 13.3236 33.7722 13.4674C33.8665 13.6113 33.9167 13.7803 33.9163 13.9531C33.9163 14.0677 33.894 14.1812 33.8507 14.287C33.8074 14.3928 33.744 14.4889 33.664 14.5699C33.584 14.6508 33.4891 14.7149 33.3846 14.7586C33.2802 14.8022 33.1683 14.8246 33.0553 14.8243Z" fill="black" fill-opacity="0.5"/>
<path id="Vector_7" d="M52.7273 29.1018C52.2344 29.1018 51.7525 29.25 51.3426 29.5278C50.9327 29.8056 50.6132 30.2003 50.4246 30.6622C50.2359 31.1242 50.1866 31.6324 50.2828 32.1228C50.3789 32.6131 50.6163 33.0635 50.9649 33.4171C51.3135 33.7706 51.7576 34.0113 52.2411 34.1089C52.7246 34.2064 53.2257 34.1564 53.6812 33.965C54.1366 33.7737 54.5259 33.4497 54.7997 33.034C55.0736 32.6183 55.2198 32.1296 55.2198 31.6296C55.2187 30.9595 54.9558 30.3172 54.4886 29.8434C54.0214 29.3695 53.388 29.1029 52.7273 29.1018ZM52.7273 32.7272C52.5128 32.7272 52.3031 32.6627 52.1247 32.5418C51.9464 32.4209 51.8074 32.249 51.7254 32.0479C51.6434 31.8469 51.622 31.6257 51.664 31.4123C51.706 31.1989 51.8095 31.003 51.9613 30.8493C52.1132 30.6955 52.3066 30.591 52.517 30.5488C52.7275 30.5066 52.9456 30.5286 53.1437 30.6122C53.3418 30.6957 53.511 30.837 53.6299 31.0181C53.7488 31.1992 53.812 31.412 53.8116 31.6296C53.8111 31.9209 53.6966 32.2001 53.4933 32.4059C53.29 32.6117 53.0146 32.7272 52.7273 32.7272Z" fill="black" fill-opacity="0.5"/>
<path id="Vector_8" d="M27.0119 51.5952C26.5629 51.5948 26.1239 51.7295 25.7505 51.9822C25.377 52.2349 25.0858 52.5943 24.9138 53.0149C24.7418 53.4356 24.6967 53.8984 24.7842 54.3451C24.8717 54.7917 25.0879 55.2019 25.4053 55.5239C25.7228 55.8459 26.1273 56.0651 26.5677 56.1538C27.0081 56.2426 27.4645 56.1968 27.8792 56.0224C28.2939 55.8479 28.6483 55.5527 28.8975 55.1739C29.1467 54.7951 29.2795 54.3499 29.2791 53.8945C29.2785 53.2849 29.0395 52.7004 28.6144 52.2693C28.1894 51.8382 27.613 51.5958 27.0119 51.5952ZM27.0119 54.7678C26.8415 54.7682 26.6749 54.7173 26.533 54.6216C26.3912 54.5259 26.2805 54.3896 26.215 54.2301C26.1495 54.0706 26.1322 53.895 26.1652 53.7254C26.1982 53.5559 26.28 53.4001 26.4004 53.2778C26.5207 53.1555 26.6741 53.0721 26.8412 53.0383C27.0082 53.0044 27.1815 53.0216 27.3389 53.0876C27.4964 53.1536 27.6309 53.2656 27.7256 53.4092C27.8203 53.5528 27.8709 53.7218 27.8709 53.8945C27.8709 54.1258 27.7805 54.3476 27.6194 54.5113C27.4584 54.675 27.2399 54.7672 27.0119 54.7678Z" fill="black" fill-opacity="0.5"/>
<path id="Vector_9" d="M33.7111 45.0502C33.559 44.9404 33.3702 44.8964 33.1861 44.9277C33.002 44.9591 32.8377 45.0633 32.7294 45.2175C32.5836 45.4255 32.3989 45.6023 32.1857 45.7378C31.9725 45.8733 31.7351 45.9649 31.487 46.0074C31.2389 46.0498 30.985 46.0423 30.7398 45.9852C30.4946 45.928 30.2629 45.8225 30.0579 45.6745C29.9827 45.6175 29.8971 45.5763 29.8061 45.5534C29.715 45.5304 29.6203 45.5261 29.5276 45.5408C29.4349 45.5555 29.346 45.5888 29.2662 45.6388C29.1863 45.6889 29.1172 45.7546 29.0627 45.8321C29.0083 45.9096 28.9697 45.9974 28.9492 46.0902C28.9286 46.1831 28.9266 46.2792 28.9433 46.3728C28.9599 46.4665 28.9948 46.5559 29.046 46.6356C29.0971 46.7154 29.1635 46.784 29.2412 46.8374C29.9598 47.3554 30.8517 47.563 31.7211 47.4146C32.5905 47.2662 33.3663 46.7739 33.8781 46.0458C33.9316 45.9693 33.9697 45.8829 33.9902 45.7915C34.0108 45.7 34.0134 45.6054 33.9979 45.5129C33.9824 45.4205 33.9491 45.332 33.8999 45.2526C33.8507 45.1732 33.7865 45.1044 33.7111 45.0502Z" fill="black" fill-opacity="0.5"/>
<path id="Vector_10" d="M62.6889 51.126C62.5379 51.0145 62.3494 50.9684 62.1649 50.9979C61.9805 51.0274 61.8151 51.1299 61.7052 51.2831C61.5953 51.4362 61.5498 51.6273 61.5789 51.8144C61.6079 52.0015 61.7091 52.1693 61.8601 52.2807C62.2702 52.5844 62.5448 53.0406 62.6236 53.5493C62.7024 54.058 62.579 54.5777 62.2805 54.9942C62.1706 55.1474 62.1252 55.3385 62.1542 55.5256C62.1833 55.7127 62.2844 55.8804 62.4354 55.9919C62.5864 56.1034 62.7749 56.1494 62.9593 56.12C63.1438 56.0905 63.3092 55.9879 63.4191 55.8348C63.9364 55.1116 64.15 54.21 64.0132 53.3274C63.8763 52.4448 63.4001 51.6532 62.6889 51.126Z" fill="black" fill-opacity="0.5"/>
<path id="Vector_11" d="M47.2575 39.2662C47.4442 39.2754 47.6269 39.209 47.7654 39.0816C47.9038 38.9541 47.9867 38.7762 47.9958 38.5868C48.0049 38.3974 47.9394 38.2121 47.8138 38.0717C47.6881 37.9313 47.5126 37.8472 47.3259 37.838C46.8205 37.786 46.3562 37.5327 46.0348 37.1337C45.7135 36.7347 45.5614 36.2227 45.612 35.7101C45.6306 35.5207 45.5744 35.3315 45.4555 35.1842C45.3367 35.0369 45.165 34.9435 44.9783 34.9246C44.7916 34.9056 44.605 34.9627 44.4598 35.0832C44.3146 35.2038 44.2225 35.3779 44.2038 35.5673C44.1167 36.4566 44.3811 37.3447 44.9389 38.0366C45.4967 38.7286 46.3023 39.1678 47.1791 39.258C47.2049 39.2631 47.2312 39.2659 47.2575 39.2662Z" fill="black" fill-opacity="0.5"/>
<path id="Vector_12" d="M21.9488 30.1015C21.564 29.8926 21.1423 29.7627 20.708 29.7192C20.2736 29.6758 19.835 29.7197 19.4174 29.8484C18.9998 29.977 18.6113 30.188 18.2742 30.4691C17.937 30.7503 17.6579 31.0961 17.4527 31.4868C17.365 31.6541 17.3463 31.8497 17.4006 32.031C17.4549 32.2122 17.5778 32.3643 17.7424 32.4539C17.8438 32.5091 17.9572 32.5379 18.0723 32.5375C18.1999 32.5376 18.3251 32.5026 18.4346 32.4361C18.5441 32.3696 18.6337 32.2742 18.6939 32.1601C18.8122 31.9347 18.9732 31.7353 19.1676 31.5731C19.3621 31.411 19.5861 31.2893 19.8269 31.215C20.0678 31.1407 20.3207 31.1153 20.5712 31.1402C20.8217 31.1652 21.0649 31.2399 21.2869 31.3603C21.3688 31.4097 21.4597 31.4417 21.5541 31.4544C21.6485 31.4672 21.7444 31.4603 21.8362 31.4344C21.9279 31.4084 22.0135 31.3639 22.0877 31.3034C22.162 31.2429 22.2234 31.1678 22.2682 31.0826C22.313 30.9973 22.3403 30.9038 22.3484 30.8076C22.3565 30.7113 22.3453 30.6144 22.3155 30.5227C22.2856 30.431 22.2377 30.3464 22.1747 30.274C22.1117 30.2016 22.0348 30.1429 21.9488 30.1015Z" fill="black" fill-opacity="0.5"/>
<path id="Vector_13" d="M36.9656 20.7287C36.8779 20.699 36.7853 20.6871 36.693 20.6936C36.6008 20.7002 36.5107 20.7251 36.4279 20.767C36.3452 20.8088 36.2714 20.8668 36.2107 20.9376C36.1501 21.0084 36.1037 21.0907 36.0744 21.1796C36.0451 21.2686 36.0333 21.3625 36.0398 21.4561C36.0463 21.5496 36.0709 21.641 36.1121 21.7249C36.1534 21.8088 36.2106 21.8837 36.2804 21.9452C36.3502 22.0067 36.4313 22.0537 36.519 22.0834C37.0006 22.2476 37.3983 22.599 37.6246 23.0603C37.8509 23.5217 37.8874 24.0553 37.726 24.5439C37.6673 24.7236 37.6811 24.9195 37.7644 25.0889C37.8477 25.2582 37.9938 25.3873 38.1706 25.4478C38.2426 25.4718 38.318 25.4842 38.3939 25.4845C38.5416 25.4848 38.6857 25.4379 38.8056 25.3503C38.9256 25.2628 39.0152 25.1391 39.0618 24.9969C39.3411 24.1489 39.2772 23.2232 38.8842 22.423C38.4912 21.6228 37.8012 21.0134 36.9656 20.7287Z" fill="black" fill-opacity="0.5"/>
<path id="Vector_14" d="M61.442 27.4064C61.6931 27.4282 61.9374 27.5 62.161 27.6176C62.3847 27.7353 62.5832 27.8965 62.7454 28.0921C62.9076 28.2876 63.0301 28.5137 63.1061 28.7573C63.1821 29.0009 63.21 29.2573 63.1882 29.5119C63.172 29.7004 63.2303 29.8878 63.3502 30.0328C63.4702 30.1778 63.642 30.2685 63.8279 30.2851H63.8902C64.0661 30.2853 64.2356 30.2185 64.3652 30.098C64.4949 29.9774 64.5752 29.812 64.5903 29.6343C64.6668 28.7444 64.392 27.86 63.8263 27.1754C63.2606 26.4907 62.4501 26.0616 61.5728 25.9823C61.4803 25.9741 61.3872 25.9845 61.2987 26.0128C61.2102 26.0412 61.128 26.0869 61.057 26.1474C60.9859 26.208 60.9273 26.2821 60.8844 26.3656C60.8416 26.4491 60.8154 26.5404 60.8074 26.6341C60.7993 26.7279 60.8095 26.8224 60.8375 26.9121C60.8654 27.0019 60.9105 27.0852 60.9702 27.1573C61.0299 27.2294 61.103 27.2888 61.1853 27.3323C61.2677 27.3757 61.3576 27.4023 61.4501 27.4104L61.442 27.4064Z" fill="black" fill-opacity="0.5"/>
<path id="Vector_15" d="M17.0322 51.6401C16.1535 51.5667 15.2821 51.8503 14.6095 52.4283C13.9369 53.0064 13.5182 53.8318 13.4454 54.7229C13.4304 54.9114 13.4897 55.0983 13.6104 55.2425C13.7311 55.3867 13.9033 55.4764 14.0891 55.492H14.1495C14.326 55.4921 14.496 55.4248 14.6258 55.3034C14.7555 55.182 14.8354 55.0156 14.8496 54.8371C14.8703 54.5827 14.9404 54.335 15.0558 54.1081C15.1711 53.8812 15.3295 53.6797 15.5218 53.515C15.7141 53.3503 15.9365 53.2257 16.1764 53.1483C16.4162 53.071 16.6688 53.0424 16.9196 53.0642C17.1063 53.0799 17.2915 53.0197 17.4345 52.8969C17.5775 52.774 17.6665 52.5987 17.682 52.4093C17.6975 52.2199 17.6381 52.032 17.517 51.887C17.3959 51.742 17.223 51.6517 17.0362 51.636L17.0322 51.6401Z" fill="black" fill-opacity="0.5"/>
</g>
</g>
</g>
</svg>
