<svg width="52" height="63" viewBox="0 0 52 63" fill="none" xmlns="http://www.w3.org/2000/svg">
<g id="Cupcake">
<g id="Outline">
<g id="Cupcake_2">
<path id="Vector" d="M51.6784 31.633C51.6784 29.7322 50.9339 27.9092 49.6086 26.5651C48.2833 25.221 46.4858 24.4658 44.6115 24.4658H43.8416C44.7999 23.4522 45.4433 22.1754 45.692 20.794C45.9407 19.4125 45.7836 17.9874 45.2402 16.6958C44.6969 15.4042 43.7913 14.303 42.636 13.529C41.4806 12.7551 40.1265 12.3425 38.7419 12.3426H38.1208C37.8423 10.6507 36.8953 9.43126 35.2976 8.68942C33.5524 7.8799 31.204 7.77839 29.3523 7.77839C28.3739 7.8027 27.4205 7.46341 26.6716 6.82441C26.0954 6.30382 25.7527 5.63487 25.7527 5.02057C25.7527 3.55512 26.3726 2.46318 26.651 2.2979C26.9403 2.30135 27.2191 2.18811 27.4261 1.98309C27.633 1.77806 27.7512 1.49806 27.7546 1.20466C27.758 0.911264 27.6464 0.628514 27.4442 0.418611C27.2421 0.208708 26.966 0.0888467 26.6767 0.085395C26.361 0.0619685 18.8963 -0.419576 15.316 4.02234C13.6182 6.12422 13.0972 8.91978 13.7671 12.3426H12.9445C11.5599 12.3425 10.2058 12.7549 9.05024 13.5284C7.89468 14.302 6.98858 15.4027 6.44445 16.694C5.90032 17.9853 5.74212 19.4102 5.98948 20.7918C6.23684 22.1735 6.87887 23.451 7.83587 24.4658H7.06592C5.2777 24.4646 3.55552 25.151 2.24654 26.3866C0.937564 27.6222 0.139122 29.3152 0.0121675 31.1242C-0.114787 32.9332 0.439188 34.7238 1.56242 36.135C2.68565 37.5462 4.29462 38.473 6.06498 38.7287L11.0209 61.7022C11.0744 61.9487 11.2093 62.1692 11.4032 62.3273C11.5972 62.4854 11.8385 62.5716 12.0873 62.5716H39.5991C39.8479 62.5716 40.0893 62.4854 40.2832 62.3273C40.4771 62.1692 40.612 61.9487 40.6655 61.7022L45.6125 38.7274C47.2952 38.481 48.8342 37.6285 49.948 36.3258C51.0619 35.0231 51.6761 33.3573 51.6784 31.633ZM31.136 60.3591L32.4655 38.8003H37.7358L35.0769 60.3591H31.136ZM16.6095 60.3591L13.9506 38.8003H19.221L20.5504 60.3591H16.6095ZM20.1205 38.8003H25.3947V60.3591H21.45L20.1205 38.8003ZM26.293 38.8003H31.5659L30.2364 60.3591H26.293V38.8003ZM8.32736 38.8003H13.0459L15.7048 60.3591H12.9689L8.32736 38.8003ZM38.7214 60.3591H35.9816L38.6405 38.8003H43.3642L38.7214 60.3591ZM44.6359 36.5877H7.04924C5.75356 36.5843 4.5123 36.059 3.59852 35.1273C2.68474 34.1957 2.1733 32.9341 2.1767 31.62C2.1801 30.306 2.69807 29.0471 3.61667 28.1203C4.53526 27.1936 5.77922 26.6749 7.0749 26.6783H23.738C24.0273 26.6783 24.3048 26.5618 24.5093 26.3543C24.7139 26.1469 24.8288 25.8655 24.8288 25.5721C24.8288 25.2787 24.7139 24.9973 24.5093 24.7899C24.3048 24.5824 24.0273 24.4658 23.738 24.4658H12.9445C11.6624 24.4448 10.4398 23.9134 9.54045 22.9864C8.6411 22.0594 8.13706 20.811 8.13706 19.5105C8.13706 18.21 8.6411 16.9616 9.54045 16.0346C10.4398 15.1076 11.6624 14.5762 12.9445 14.5551H14.8938C14.9817 14.5787 15.0723 14.5905 15.1633 14.5903C15.2537 14.5899 15.3437 14.5785 15.4315 14.5564C15.5704 14.5207 15.7009 14.4576 15.8157 14.3708C15.9306 14.2839 16.0274 14.1749 16.1007 14.05C16.174 13.9252 16.2223 13.7869 16.2429 13.6431C16.2635 13.4994 16.2559 13.3529 16.2207 13.212L16.2143 13.186C16.2143 13.186 16.2143 13.1743 16.2143 13.1678C16.2143 13.1613 16.2143 13.1587 16.2143 13.1535C15.3006 9.8204 15.5726 7.22006 17.0137 5.42533C18.7564 3.25838 21.8901 2.56209 24.0807 2.35776C23.7557 3.20472 23.5878 4.10526 23.5853 5.01406C23.5853 6.27129 24.1884 7.53371 25.2407 8.47598C26.3819 9.46847 27.8401 10.006 29.3433 9.98829C33.8668 9.98829 35.4478 10.8655 35.8879 12.3426H29.2227C28.9334 12.3426 28.6559 12.4592 28.4514 12.6667C28.2468 12.8741 28.1319 13.1555 28.1319 13.4489C28.1319 13.7423 28.2468 14.0237 28.4514 14.2311C28.6559 14.4386 28.9334 14.5551 29.2227 14.5551H38.7419C40.024 14.5762 41.2466 15.1076 42.146 16.0346C43.0453 16.9616 43.5494 18.21 43.5494 19.5105C43.5494 20.811 43.0453 22.0594 42.146 22.9864C41.2466 23.9134 40.024 24.4448 38.7419 24.4658C38.4526 24.4658 38.1752 24.5824 37.9706 24.7899C37.766 24.9973 37.6511 25.2787 37.6511 25.5721C37.6511 25.8655 37.766 26.1469 37.9706 26.3543C38.1752 26.5618 38.4526 26.6783 38.7419 26.6783H44.6115C45.9072 26.6751 47.1511 27.1939 48.0696 28.1208C48.988 29.0477 49.5058 30.3066 49.5091 31.6207C49.5123 32.9347 49.0007 34.1963 48.0868 35.1278C47.1729 36.0593 45.9316 36.5845 44.6359 36.5877Z" fill="white"/>
<path id="Vector_2" d="M30.8216 29.9905C30.4226 29.9902 30.0324 30.11 29.7005 30.3346C29.3686 30.5593 29.1098 30.8787 28.957 31.2526C28.8041 31.6264 28.764 32.0378 28.8416 32.4347C28.9193 32.8317 29.1114 33.1964 29.3934 33.4826C29.6755 33.7689 30.0349 33.9638 30.4263 34.0429C30.8176 34.1219 31.2233 34.0815 31.592 33.9267C31.9607 33.7719 32.2758 33.5097 32.4975 33.1732C32.7193 32.8367 32.8376 32.4411 32.8376 32.0364C32.8369 31.4942 32.6244 30.9744 32.2465 30.5909C31.8686 30.2074 31.3562 29.9915 30.8216 29.9905ZM30.8216 33.1713C30.6002 33.1715 30.3838 33.1052 30.1996 32.9806C30.0154 32.8561 29.8718 32.6789 29.7869 32.4716C29.702 32.2642 29.6796 32.036 29.7227 31.8158C29.7657 31.5956 29.8722 31.3932 30.0286 31.2344C30.1851 31.0755 30.3844 30.9673 30.6015 30.9234C30.8186 30.8795 31.0437 30.9019 31.2483 30.9878C31.4528 31.0736 31.6276 31.2191 31.7506 31.4057C31.8737 31.5924 31.9393 31.8119 31.9393 32.0364C31.9398 32.1857 31.9113 32.3337 31.8554 32.4718C31.7995 32.6099 31.7173 32.7355 31.6135 32.8414C31.5097 32.9473 31.3863 33.0314 31.2504 33.0889C31.1145 33.1464 30.9688 33.1761 30.8216 33.1765V33.1713Z" fill="white"/>
<path id="Vector_3" d="M9.413 29.8736C9.413 29.612 9.33654 29.3564 9.19327 29.1389C9.05001 28.9215 8.84639 28.752 8.60815 28.6519C8.36991 28.5518 8.10777 28.5257 7.85485 28.5767C7.60194 28.6277 7.36963 28.7536 7.18729 28.9386C7.00495 29.1235 6.88078 29.3591 6.83047 29.6156C6.78017 29.8721 6.80598 30.138 6.90467 30.3796C7.00335 30.6212 7.17046 30.8277 7.38486 30.973C7.59927 31.1183 7.85135 31.1959 8.10921 31.1959C8.45489 31.1955 8.78632 31.0561 9.03076 30.8082C9.27519 30.5603 9.41266 30.2242 9.413 29.8736ZM8.10921 30.2848C8.02901 30.2848 7.95061 30.2607 7.88392 30.2155C7.81724 30.1703 7.76526 30.1061 7.73457 30.0309C7.70388 29.9558 7.69585 29.8731 7.71149 29.7933C7.72714 29.7136 7.76576 29.6403 7.82247 29.5828C7.87918 29.5252 7.95144 29.4861 8.0301 29.4702C8.10876 29.4543 8.1903 29.4625 8.26439 29.4936C8.33849 29.5247 8.40182 29.5774 8.44638 29.6451C8.49094 29.7127 8.51472 29.7922 8.51472 29.8736C8.51489 29.9276 8.50452 29.9812 8.4842 30.0312C8.46388 30.0811 8.43402 30.1265 8.39633 30.1648C8.35864 30.203 8.31387 30.2333 8.26459 30.2539C8.21532 30.2745 8.16251 30.285 8.10921 30.2848Z" fill="white"/>
<path id="Vector_4" d="M44.9323 28.5513C44.6745 28.5515 44.4226 28.6293 44.2083 28.7747C43.9941 28.9202 43.8272 29.1268 43.7287 29.3684C43.6302 29.6101 43.6046 29.8759 43.655 30.1323C43.7055 30.3887 43.8298 30.6242 44.0121 30.809C44.1945 30.9938 44.4269 31.1196 44.6797 31.1705C44.9326 31.2215 45.1947 31.1952 45.4329 31.0951C45.671 30.995 45.8746 30.8255 46.0178 30.6081C46.161 30.3906 46.2374 30.135 46.2374 29.8736C46.2371 29.5228 46.0994 29.1864 45.8547 28.9385C45.61 28.6905 45.2782 28.5513 44.9323 28.5513ZM44.9323 30.2848C44.8522 30.2846 44.7739 30.2602 44.7074 30.2149C44.6409 30.1695 44.5891 30.1052 44.5586 30.03C44.5281 29.9549 44.5203 29.8722 44.5361 29.7925C44.5518 29.7128 44.5906 29.6397 44.6473 29.5823C44.7041 29.5249 44.7763 29.4859 44.855 29.4701C44.9336 29.4543 45.0151 29.4626 45.0891 29.4937C45.1631 29.5249 45.2264 29.5776 45.2709 29.6452C45.3154 29.7128 45.3391 29.7923 45.3391 29.8736C45.3391 29.9277 45.3286 29.9813 45.3081 30.0312C45.2877 30.0812 45.2577 30.1266 45.2199 30.1648C45.1821 30.203 45.1373 30.2333 45.0879 30.2539C45.0386 30.2745 44.9857 30.285 44.9323 30.2848Z" fill="white"/>
<path id="Vector_5" d="M18.895 16.8457C18.6087 16.8457 18.3289 16.9318 18.0908 17.0931C17.8528 17.2544 17.6673 17.4837 17.5577 17.752C17.4481 18.0202 17.4195 18.3154 17.4753 18.6002C17.5312 18.8849 17.669 19.1465 17.8715 19.3518C18.0739 19.5571 18.3318 19.697 18.6126 19.7536C18.8934 19.8103 19.1845 19.7812 19.449 19.6701C19.7135 19.559 19.9395 19.3708 20.0986 19.1294C20.2576 18.888 20.3425 18.6041 20.3425 18.3138C20.3422 17.9245 20.1896 17.5513 19.9182 17.2761C19.6468 17.0008 19.2788 16.846 18.895 16.8457ZM18.895 18.8695C18.7863 18.8695 18.6801 18.8368 18.5898 18.7755C18.4994 18.7143 18.429 18.6272 18.3875 18.5253C18.3459 18.4235 18.3351 18.3114 18.3564 18.2033C18.3777 18.0952 18.4302 17.996 18.5071 17.9181C18.5841 17.8403 18.682 17.7873 18.7887 17.766C18.8953 17.7446 19.0058 17.7558 19.1061 17.7982C19.2064 17.8406 19.2921 17.9122 19.3523 18.0039C19.4125 18.0957 19.4445 18.2035 19.4443 18.3138C19.4426 18.4604 19.384 18.6004 19.2811 18.7034C19.1783 18.8065 19.0396 18.8643 18.895 18.8643V18.8695Z" fill="white"/>
<path id="Vector_6" d="M21.0804 7.49219C20.7941 7.49219 20.5142 7.57829 20.2762 7.7396C20.0381 7.90091 19.8526 8.13019 19.7431 8.39844C19.6335 8.6667 19.6048 8.96187 19.6607 9.24665C19.7165 9.53143 19.8544 9.79301 20.0568 9.99832C20.2593 10.2036 20.5172 10.3435 20.798 10.4001C21.0788 10.4567 21.3698 10.4277 21.6343 10.3166C21.8988 10.2054 22.1249 10.0173 22.284 9.77586C22.443 9.53444 22.5279 9.2506 22.5279 8.96025C22.5279 8.57089 22.3754 8.19749 22.1039 7.92217C21.8325 7.64686 21.4643 7.49219 21.0804 7.49219ZM21.0804 9.51597C20.9717 9.51597 20.8655 9.48327 20.7751 9.42201C20.6848 9.36074 20.6144 9.27367 20.5728 9.17181C20.5313 9.06995 20.5205 8.95788 20.5418 8.84979C20.5631 8.74171 20.6155 8.64246 20.6925 8.56461C20.7694 8.48676 20.8674 8.43381 20.974 8.41246C21.0807 8.39112 21.1911 8.40233 21.2915 8.44469C21.3918 8.48705 21.4775 8.55865 21.5377 8.65042C21.5979 8.7422 21.6299 8.85002 21.6296 8.96025C21.6296 9.03334 21.6154 9.10571 21.5878 9.17322C21.5602 9.24072 21.5197 9.30204 21.4687 9.35367C21.4177 9.40529 21.3571 9.4462 21.2905 9.47405C21.2238 9.5019 21.1525 9.51615 21.0804 9.51597Z" fill="white"/>
<path id="Vector_7" d="M33.6294 18.6235C33.3149 18.6235 33.0075 18.7181 32.7461 18.8953C32.4846 19.0725 32.2808 19.3243 32.1605 19.619C32.0401 19.9136 32.0086 20.2378 32.07 20.5506C32.1313 20.8634 32.2828 21.1508 32.5051 21.3763C32.7275 21.6018 33.0108 21.7554 33.3192 21.8176C33.6276 21.8798 33.9473 21.8479 34.2378 21.7258C34.5284 21.6038 34.7767 21.3971 34.9514 21.1319C35.1261 20.8667 35.2193 20.555 35.2193 20.2361C35.2187 19.8086 35.0509 19.3988 34.7529 19.0966C34.4549 18.7943 34.0509 18.6242 33.6294 18.6235ZM33.6294 20.9362C33.4925 20.9362 33.3588 20.8951 33.245 20.8179C33.1312 20.7408 33.0426 20.6312 32.9902 20.5029C32.9379 20.3746 32.9243 20.2335 32.9511 20.0974C32.9779 19.9613 33.0439 19.8363 33.1408 19.7383C33.2376 19.6402 33.361 19.5735 33.4952 19.5466C33.6295 19.5197 33.7686 19.5337 33.895 19.587C34.0213 19.6403 34.1293 19.7304 34.2051 19.846C34.281 19.9615 34.3213 20.0973 34.3211 20.2361C34.3207 20.4219 34.2477 20.6 34.118 20.7312C33.9883 20.8625 33.8126 20.9362 33.6294 20.9362Z" fill="white"/>
<path id="Vector_8" d="M17.2255 32.9722C16.9391 32.9719 16.659 33.0578 16.4208 33.219C16.1826 33.3803 15.9968 33.6095 15.8871 33.8778C15.7774 34.1461 15.7486 34.4414 15.8044 34.7263C15.8602 35.0112 15.9981 35.2729 16.2006 35.4783C16.4032 35.6837 16.6612 35.8235 16.9421 35.8801C17.223 35.9367 17.5142 35.9076 17.7787 35.7963C18.0433 35.685 18.2693 35.4966 18.4283 35.255C18.5872 35.0134 18.672 34.7294 18.6717 34.4389C18.6714 34.05 18.5189 33.6771 18.2477 33.4022C17.9766 33.1272 17.6089 32.9725 17.2255 32.9722ZM17.2255 34.996C17.1168 34.9962 17.0105 34.9638 16.92 34.9027C16.8295 34.8417 16.7589 34.7548 16.7171 34.653C16.6754 34.5512 16.6643 34.4392 16.6854 34.3311C16.7064 34.2229 16.7586 34.1235 16.8354 34.0455C16.9121 33.9675 17.01 33.9143 17.1166 33.8927C17.2231 33.8711 17.3336 33.8821 17.4341 33.9242C17.5345 33.9663 17.6204 34.0377 17.6808 34.1293C17.7412 34.221 17.7734 34.3287 17.7734 34.4389C17.7734 34.5864 17.7157 34.7279 17.613 34.8323C17.5103 34.9368 17.3709 34.9956 17.2255 34.996Z" fill="white"/>
<path id="Vector_9" d="M21.4987 28.7971C21.4017 28.727 21.2813 28.6989 21.1638 28.7189C21.0464 28.739 20.9416 28.8054 20.8725 28.9038C20.7795 29.0365 20.6617 29.1492 20.5257 29.2357C20.3897 29.3222 20.2382 29.3806 20.08 29.4077C19.9217 29.4347 19.7597 29.4299 19.6033 29.3935C19.4469 29.3571 19.2991 29.2897 19.1683 29.1953C19.1204 29.159 19.0658 29.1327 19.0077 29.118C18.9496 29.1034 18.8892 29.1007 18.8301 29.11C18.7709 29.1194 18.7142 29.1407 18.6633 29.1726C18.6124 29.2045 18.5682 29.2464 18.5335 29.2958C18.4988 29.3453 18.4741 29.4013 18.4611 29.4605C18.448 29.5198 18.4467 29.5811 18.4573 29.6408C18.4679 29.7005 18.4902 29.7575 18.5228 29.8084C18.5554 29.8593 18.5978 29.9031 18.6473 29.9372C19.1057 30.2676 19.6747 30.4 20.2293 30.3053C20.7839 30.2107 21.2788 29.8966 21.6052 29.4322C21.6394 29.3834 21.6637 29.3283 21.6768 29.2699C21.6899 29.2116 21.6916 29.1512 21.6817 29.0923C21.6718 29.0333 21.6506 28.9769 21.6192 28.9262C21.5878 28.8756 21.5468 28.8317 21.4987 28.7971Z" fill="white"/>
<path id="Vector_10" d="M39.9841 32.6729C39.8878 32.6018 39.7676 32.5724 39.6499 32.5912C39.5322 32.61 39.4267 32.6755 39.3566 32.7732C39.2865 32.8708 39.2575 32.9928 39.276 33.1121C39.2946 33.2315 39.3591 33.3385 39.4554 33.4096C39.717 33.6033 39.8922 33.8943 39.9425 34.2188C39.9927 34.5433 39.914 34.8748 39.7236 35.1405C39.6535 35.2382 39.6245 35.3601 39.643 35.4795C39.6616 35.5988 39.7261 35.7058 39.8224 35.7769C39.9187 35.8481 40.039 35.8774 40.1566 35.8586C40.2743 35.8399 40.3798 35.7744 40.4499 35.6767C40.7799 35.2154 40.9162 34.6403 40.8289 34.0772C40.7416 33.5142 40.4378 33.0093 39.9841 32.6729Z" fill="white"/>
<path id="Vector_11" d="M30.1402 25.1075C30.2593 25.1134 30.3759 25.071 30.4642 24.9897C30.5525 24.9084 30.6054 24.7949 30.6112 24.6741C30.6169 24.5533 30.5752 24.4351 30.495 24.3455C30.4149 24.256 30.303 24.2023 30.1838 24.1965C29.8615 24.1633 29.5652 24.0017 29.3603 23.7472C29.1553 23.4927 29.0582 23.166 29.0905 22.839C29.1024 22.7182 29.0665 22.5976 28.9907 22.5036C28.9149 22.4096 28.8054 22.35 28.6863 22.338C28.5672 22.3259 28.4482 22.3623 28.3555 22.4392C28.2629 22.5161 28.2041 22.6271 28.1922 22.7479C28.1367 23.3153 28.3053 23.8818 28.6611 24.3232C29.0169 24.7646 29.5309 25.0448 30.0902 25.1023C30.1067 25.1056 30.1234 25.1073 30.1402 25.1075Z" fill="white"/>
<path id="Vector_12" d="M13.9955 19.2613C13.7501 19.128 13.4811 19.0451 13.204 19.0174C12.9269 18.9897 12.6472 19.0177 12.3808 19.0998C12.1144 19.1819 11.8665 19.3165 11.6515 19.4958C11.4364 19.6751 11.2583 19.8957 11.1274 20.145C11.0715 20.2517 11.0596 20.3765 11.0942 20.4921C11.1289 20.6077 11.2072 20.7047 11.3122 20.7619C11.3769 20.7971 11.4493 20.8155 11.5227 20.8152C11.6041 20.8153 11.684 20.7929 11.7538 20.7505C11.8237 20.7081 11.8808 20.6473 11.9192 20.5745C11.9947 20.4307 12.0974 20.3035 12.2214 20.2C12.3454 20.0966 12.4884 20.019 12.642 19.9716C12.7956 19.9242 12.9569 19.908 13.1168 19.9239C13.2766 19.9398 13.4317 19.9875 13.5733 20.0643C13.6255 20.0958 13.6835 20.1162 13.7437 20.1243C13.804 20.1325 13.8652 20.1281 13.9237 20.1115C13.9822 20.095 14.0368 20.0666 14.0842 20.028C14.1315 19.9894 14.1707 19.9415 14.1993 19.8871C14.2279 19.8328 14.2453 19.7731 14.2505 19.7117C14.2556 19.6503 14.2485 19.5885 14.2294 19.53C14.2104 19.4715 14.1798 19.4175 14.1396 19.3713C14.0994 19.3251 14.0504 19.2877 13.9955 19.2613Z" fill="white"/>
<path id="Vector_13" d="M23.5751 13.2823C23.5191 13.2633 23.46 13.2557 23.4012 13.2599C23.3423 13.2641 23.2849 13.28 23.2321 13.3067C23.1793 13.3334 23.1322 13.3704 23.0935 13.4156C23.0548 13.4607 23.0253 13.5132 23.0066 13.5699C22.9879 13.6267 22.9804 13.6866 22.9845 13.7463C22.9886 13.806 23.0043 13.8642 23.0306 13.9178C23.057 13.9713 23.0935 14.0191 23.138 14.0583C23.1825 14.0975 23.2342 14.1275 23.2902 14.1465C23.5974 14.2512 23.8511 14.4754 23.9954 14.7697C24.1398 15.064 24.1631 15.4044 24.0601 15.716C24.0227 15.8307 24.0315 15.9556 24.0846 16.0637C24.1378 16.1717 24.2309 16.254 24.3437 16.2926C24.3897 16.308 24.4378 16.3159 24.4862 16.316C24.5804 16.3162 24.6723 16.2863 24.7488 16.2304C24.8253 16.1746 24.8825 16.0957 24.9122 16.005C25.0904 15.4641 25.0497 14.8736 24.799 14.3631C24.5483 13.8526 24.1081 13.4639 23.5751 13.2823Z" fill="white"/>
<path id="Vector_14" d="M39.1885 17.542C39.3486 17.5559 39.5045 17.6017 39.6471 17.6768C39.7898 17.7518 39.9165 17.8547 40.0199 17.9794C40.1234 18.1041 40.2016 18.2483 40.25 18.4037C40.2985 18.5592 40.3163 18.7227 40.3024 18.8851C40.292 19.0054 40.3292 19.1249 40.4057 19.2174C40.4823 19.3099 40.5918 19.3678 40.7104 19.3784H40.7502C40.8624 19.3785 40.9705 19.3359 41.0532 19.259C41.1359 19.1821 41.1871 19.0765 41.1968 18.9632C41.2456 18.3955 41.0703 17.8314 40.7094 17.3946C40.3485 16.9579 39.8315 16.6842 39.2719 16.6336C39.2129 16.6283 39.1535 16.635 39.097 16.653C39.0406 16.6711 38.9882 16.7003 38.9428 16.7389C38.8975 16.7775 38.8601 16.8248 38.8328 16.8781C38.8055 16.9314 38.7888 16.9896 38.7836 17.0494C38.7785 17.1092 38.785 17.1695 38.8028 17.2267C38.8207 17.284 38.8494 17.3371 38.8875 17.3831C38.9256 17.4291 38.9722 17.467 39.0247 17.4947C39.0772 17.5224 39.1346 17.5394 39.1936 17.5446L39.1885 17.542Z" fill="white"/>
<path id="Vector_15" d="M10.8592 33.0009C10.2987 32.9541 9.7428 33.135 9.31374 33.5037C8.88468 33.8725 8.61758 34.399 8.57116 34.9674C8.56158 35.0877 8.59944 35.2069 8.67642 35.2989C8.75341 35.3909 8.86324 35.4481 8.98181 35.4581H9.0203C9.13289 35.4581 9.24136 35.4152 9.32412 35.3377C9.40687 35.2603 9.45784 35.1541 9.46688 35.0403C9.48013 34.878 9.52484 34.72 9.59842 34.5753C9.672 34.4305 9.77302 34.302 9.89569 34.1969C10.0184 34.0918 10.1603 34.0124 10.3133 33.963C10.4663 33.9137 10.6274 33.8954 10.7874 33.9093C10.9065 33.9193 11.0246 33.881 11.1158 33.8026C11.2071 33.7243 11.2638 33.6124 11.2737 33.4916C11.2836 33.3708 11.2457 33.2509 11.1685 33.1584C11.0912 33.0659 10.9809 33.0083 10.8618 32.9983L10.8592 33.0009Z" fill="white"/>
</g>
</g>
</g>
</svg>
