<svg width="194" height="235" viewBox="0 0 194 235" fill="none" xmlns="http://www.w3.org/2000/svg">
<g id="Outline">
<g id="Cupcake">
<path id="Vector" d="M194 118.694C194 111.548 191.205 104.695 186.231 99.642C181.256 94.5891 174.509 91.7505 167.474 91.7505H164.584C168.181 87.9401 170.596 83.14 171.529 77.9469C172.463 72.7537 171.873 67.3965 169.834 62.5409C167.794 57.6853 164.395 53.5456 160.058 50.6361C155.722 47.7266 150.639 46.1758 145.442 46.1762H143.11C142.065 39.8159 138.51 35.2315 132.513 32.4428C125.963 29.3996 117.148 29.018 110.197 29.018C106.525 29.1094 102.946 27.8339 100.135 25.4317C97.9722 23.4747 96.6861 20.9599 96.6861 18.6506C96.6861 13.1416 99.0126 9.03672 100.058 8.41537C101.144 8.42834 102.19 8.00264 102.967 7.23191C103.744 6.46118 104.188 5.40856 104.2 4.30561C104.213 3.20266 103.794 2.13972 103.035 1.35065C102.276 0.561565 101.24 0.110975 100.154 0.0979994C98.9692 0.00993313 70.9499 -1.80032 57.511 14.898C51.1384 22.7995 49.1827 33.3088 51.6971 46.1762H48.6095C43.4124 46.1758 38.3295 47.7258 33.992 50.6339C29.6545 53.5419 26.2535 57.6799 24.211 62.5341C22.1686 67.3883 21.5747 72.7449 22.5032 77.9389C23.4317 83.1329 25.8417 87.9355 29.4338 91.7505H26.5437C19.8315 91.746 13.3672 94.3263 8.45387 98.9712C3.54052 103.616 0.54351 109.98 0.0669779 116.781C-0.409554 123.582 1.66983 130.313 5.88596 135.618C10.1021 140.923 16.1415 144.407 22.7866 145.368L41.3891 231.732C41.59 232.658 42.0962 233.487 42.8242 234.082C43.5521 234.676 44.458 235 45.3919 235H148.659C149.593 235 150.499 234.676 151.227 234.082C151.955 233.487 152.461 232.658 152.662 231.732L171.231 145.363C177.547 144.437 183.324 141.232 187.505 136.335C191.686 131.438 193.991 125.176 194 118.694ZM116.893 226.683L121.883 145.637H141.665L131.685 226.683H116.893ZM62.3663 226.683L52.3859 145.637H72.1685L77.1587 226.683H62.3663ZM75.5451 145.637H95.3422V226.683H80.5353L75.5451 145.637ZM98.7139 145.637H118.506L113.516 226.683H98.7139V145.637ZM31.2787 145.637H48.9901L58.9705 226.683H48.701L31.2787 145.637ZM145.365 226.683H135.081L145.061 145.637H162.792L145.365 226.683ZM167.565 137.32H26.4811C21.6177 137.307 16.9585 135.332 13.5286 131.83C10.0987 128.328 8.17893 123.585 8.19171 118.645C8.20448 113.705 10.1487 108.973 13.5967 105.489C17.0447 102.005 21.714 100.055 26.5775 100.068H89.1237C90.2096 100.068 91.251 99.6297 92.0188 98.8498C92.7866 98.0699 93.218 97.0121 93.218 95.9092C93.218 94.8062 92.7866 93.7484 92.0188 92.9685C91.251 92.1886 90.2096 91.7505 89.1237 91.7505H48.6095C43.7969 91.6713 39.2078 89.6738 35.8321 86.1889C32.4563 82.704 30.5644 78.011 30.5644 73.122C30.5644 68.2331 32.4563 63.5401 35.8321 60.0552C39.2078 56.5703 43.7969 54.5728 48.6095 54.4936H55.9263C56.2564 54.582 56.5964 54.6264 56.9378 54.6257C57.2771 54.6241 57.6151 54.5814 57.9445 54.4985C58.4658 54.3642 58.9559 54.127 59.3869 53.8004C59.8178 53.4737 60.1813 53.064 60.4563 52.5947C60.7314 52.1254 60.9128 51.6056 60.9901 51.0651C61.0674 50.5246 61.0391 49.9739 60.9068 49.4444L60.8828 49.3466C60.8828 49.3466 60.8828 49.3026 60.8828 49.2781C60.8828 49.2536 60.8828 49.2438 60.8828 49.2243C57.4532 36.6944 58.4743 26.9191 63.8836 20.1722C70.4248 12.0261 82.1875 9.40856 90.4098 8.64042C89.1901 11.8244 88.5598 15.2097 88.5505 18.6262C88.5505 23.3524 90.8144 28.0982 94.7642 31.6404C99.0476 35.3714 104.521 37.3922 110.163 37.3256C127.143 37.3256 133.077 40.6231 134.729 46.1762H109.711C108.625 46.1762 107.583 46.6144 106.816 47.3943C106.048 48.1742 105.616 49.2319 105.616 50.3349C105.616 51.4378 106.048 52.4956 106.816 53.2755C107.583 54.0554 108.625 54.4936 109.711 54.4936H145.442C150.254 54.5728 154.843 56.5703 158.219 60.0552C161.595 63.5401 163.487 68.2331 163.487 73.122C163.487 78.011 161.595 82.704 158.219 86.1889C154.843 89.6738 150.254 91.6713 145.442 91.7505C144.356 91.7505 143.315 92.1886 142.547 92.9685C141.779 93.7484 141.348 94.8062 141.348 95.9092C141.348 97.0121 141.779 98.0699 142.547 98.8498C143.315 99.6297 144.356 100.068 145.442 100.068H167.474C172.337 100.056 177.006 102.006 180.454 105.49C183.901 108.975 185.845 113.707 185.857 118.647C185.869 123.587 183.949 128.33 180.519 131.832C177.088 135.333 172.429 137.308 167.565 137.32Z" fill="white" fill-opacity="0.5"/>
<path id="Vector_2" d="M115.713 112.52C114.215 112.519 112.75 112.969 111.504 113.813C110.259 114.658 109.287 115.859 108.714 117.264C108.14 118.669 107.989 120.216 108.281 121.708C108.572 123.2 109.293 124.571 110.352 125.647C111.411 126.723 112.76 127.456 114.229 127.754C115.698 128.051 117.22 127.899 118.604 127.317C119.988 126.735 121.171 125.749 122.003 124.484C122.836 123.219 123.28 121.732 123.28 120.211C123.277 118.172 122.479 116.218 121.061 114.777C119.642 113.335 117.719 112.523 115.713 112.52ZM115.713 124.477C114.882 124.478 114.069 124.229 113.378 123.76C112.686 123.292 112.147 122.626 111.829 121.847C111.51 121.067 111.426 120.209 111.588 119.381C111.749 118.553 112.149 117.793 112.736 117.196C113.323 116.598 114.072 116.192 114.887 116.027C115.701 115.862 116.546 115.946 117.314 116.269C118.082 116.591 118.738 117.138 119.2 117.84C119.662 118.542 119.908 119.367 119.908 120.211C119.91 120.772 119.803 121.328 119.593 121.847C119.383 122.367 119.075 122.839 118.685 123.237C118.295 123.635 117.832 123.951 117.322 124.167C116.812 124.383 116.265 124.495 115.713 124.497V124.477Z" fill="white" fill-opacity="0.5"/>
<path id="Vector_3" d="M35.3542 112.078C35.3542 111.095 35.0671 110.134 34.5294 109.317C33.9916 108.499 33.2273 107.862 32.3331 107.486C31.4389 107.11 30.4549 107.011 29.5055 107.203C28.5562 107.395 27.6842 107.868 26.9998 108.563C26.3154 109.259 25.8493 110.144 25.6604 111.109C25.4716 112.073 25.5685 113.072 25.9389 113.981C26.3093 114.889 26.9366 115.665 27.7414 116.211C28.5462 116.758 29.4924 117.049 30.4603 117.049C31.7578 117.048 33.0019 116.524 33.9194 115.592C34.8369 114.66 35.3529 113.396 35.3542 112.078ZM30.4603 113.624C30.1592 113.624 29.865 113.534 29.6146 113.364C29.3643 113.194 29.1692 112.952 29.054 112.67C28.9388 112.387 28.9087 112.077 28.9674 111.777C29.0262 111.477 29.1711 111.201 29.384 110.985C29.5969 110.769 29.8681 110.622 30.1633 110.562C30.4586 110.502 30.7646 110.533 31.0428 110.65C31.3209 110.767 31.5586 110.965 31.7259 111.219C31.8931 111.474 31.9824 111.772 31.9824 112.078C31.983 112.281 31.9441 112.483 31.8678 112.671C31.7916 112.859 31.6795 113.029 31.538 113.173C31.3965 113.317 31.2285 113.43 31.0435 113.508C30.8586 113.585 30.6603 113.625 30.4603 113.624Z" fill="white" fill-opacity="0.5"/>
<path id="Vector_4" d="M168.678 107.107C167.71 107.108 166.765 107.401 165.961 107.948C165.156 108.494 164.53 109.271 164.16 110.179C163.791 111.088 163.694 112.087 163.884 113.051C164.073 114.015 164.54 114.9 165.224 115.595C165.909 116.29 166.781 116.763 167.73 116.954C168.679 117.145 169.663 117.047 170.557 116.67C171.451 116.294 172.215 115.657 172.752 114.839C173.29 114.022 173.577 113.061 173.577 112.078C173.576 110.759 173.059 109.495 172.14 108.563C171.222 107.631 169.976 107.107 168.678 107.107ZM168.678 113.624C168.377 113.623 168.083 113.532 167.834 113.361C167.584 113.191 167.39 112.949 167.275 112.667C167.161 112.384 167.131 112.073 167.191 111.774C167.25 111.474 167.395 111.199 167.608 110.983C167.821 110.768 168.093 110.621 168.388 110.562C168.683 110.502 168.989 110.533 169.267 110.65C169.544 110.768 169.782 110.966 169.949 111.22C170.116 111.474 170.205 111.773 170.205 112.078C170.205 112.282 170.166 112.483 170.089 112.671C170.012 112.859 169.899 113.03 169.758 113.173C169.616 113.317 169.447 113.431 169.262 113.508C169.077 113.585 168.878 113.625 168.678 113.624Z" fill="white" fill-opacity="0.5"/>
<path id="Vector_5" d="M70.9451 63.1055C69.8705 63.1055 68.82 63.4291 67.9265 64.0356C67.033 64.642 66.3365 65.5039 65.9253 66.5123C65.5141 67.5208 65.4065 68.6304 65.6161 69.701C65.8258 70.7715 66.3432 71.7549 67.1031 72.5267C67.863 73.2985 68.8311 73.8241 69.8851 74.0371C70.9391 74.25 72.0315 74.1407 73.0243 73.723C74.0172 73.3053 74.8657 72.5979 75.4627 71.6904C76.0598 70.7828 76.3784 69.7158 76.3784 68.6243C76.3772 67.161 75.8043 65.758 74.7856 64.7233C73.767 63.6886 72.3857 63.1068 70.9451 63.1055ZM70.9451 70.7134C70.5371 70.7134 70.1383 70.5905 69.7992 70.3602C69.4601 70.1299 69.1959 69.8025 69.04 69.4196C68.8841 69.0367 68.8435 68.6154 68.9235 68.2091C69.0034 67.8027 69.2002 67.4296 69.489 67.137C69.7778 66.8443 70.1456 66.6453 70.5458 66.565C70.9461 66.4848 71.3607 66.5269 71.7374 66.6862C72.114 66.8454 72.4356 67.1146 72.6616 67.4596C72.8875 67.8046 73.0076 68.2099 73.0067 68.6243C73.0003 69.1754 72.7803 69.7018 72.3944 70.0892C72.0085 70.4766 71.4877 70.6939 70.9451 70.6938V70.7134Z" fill="white" fill-opacity="0.5"/>
<path id="Vector_6" d="M79.1482 27.9414C78.0736 27.9414 77.0231 28.2651 76.1296 28.8715C75.2361 29.4779 74.5397 30.3398 74.1284 31.3483C73.7172 32.3567 73.6096 33.4663 73.8192 34.5369C74.0289 35.6074 74.5464 36.5908 75.3062 37.3626C76.0661 38.1344 77.0342 38.6601 78.0882 38.873C79.1422 39.0859 80.2346 38.9767 81.2275 38.5589C82.2203 38.1412 83.0688 37.4339 83.6659 36.5263C84.2629 35.6187 84.5816 34.5517 84.5816 33.4602C84.5816 31.9965 84.0091 30.5928 82.9902 29.5578C81.9712 28.5229 80.5892 27.9414 79.1482 27.9414ZM79.1482 35.5493C78.7403 35.5493 78.3415 35.4264 78.0023 35.1961C77.6632 34.9658 77.399 34.6385 77.2431 34.2555C77.0872 33.8726 77.0466 33.4513 77.1266 33.045C77.2065 32.6387 77.4033 32.2656 77.6921 31.9729C77.9809 31.6802 78.3487 31.4812 78.749 31.401C79.1492 31.3207 79.5639 31.3629 79.9405 31.5221C80.3171 31.6814 80.6387 31.9505 80.8647 32.2955C81.0907 32.6405 81.2108 33.0459 81.2098 33.4602C81.2098 33.735 81.1564 34.007 81.0528 34.2608C80.9491 34.5146 80.7972 34.7451 80.6057 34.9392C80.4142 35.1332 80.1869 35.287 79.9368 35.3917C79.6867 35.4964 79.4187 35.55 79.1482 35.5493Z" fill="white" fill-opacity="0.5"/>
<path id="Vector_7" d="M126.251 69.7871C125.071 69.7871 123.917 70.1426 122.936 70.8087C121.954 71.4748 121.189 72.4215 120.737 73.5292C120.286 74.6369 120.168 75.8557 120.398 77.0316C120.628 78.2075 121.197 79.2876 122.031 80.1354C122.866 80.9832 123.929 81.5605 125.087 81.7944C126.245 82.0283 127.445 81.9083 128.535 81.4495C129.626 80.9907 130.558 80.2137 131.213 79.2168C131.869 78.2199 132.219 77.0479 132.219 75.849C132.217 74.2421 131.587 72.7017 130.468 71.5655C129.35 70.4292 127.833 69.7897 126.251 69.7871ZM126.251 78.4812C125.738 78.4812 125.235 78.3264 124.808 78.0364C124.381 77.7464 124.049 77.3343 123.852 76.8521C123.656 76.37 123.605 75.8395 123.705 75.3278C123.806 74.8162 124.054 74.3463 124.417 73.9777C124.781 73.6091 125.244 73.3583 125.748 73.2571C126.252 73.1559 126.774 73.2088 127.248 73.4092C127.722 73.6095 128.128 73.9483 128.412 74.3826C128.697 74.8169 128.848 75.3272 128.847 75.849C128.846 76.5476 128.572 77.2171 128.085 77.7105C127.599 78.204 126.939 78.4812 126.251 78.4812Z" fill="white" fill-opacity="0.5"/>
<path id="Vector_8" d="M64.6784 123.729C63.6034 123.728 62.5522 124.051 61.658 124.657C60.7637 125.263 60.0666 126.124 59.6547 127.133C59.2429 128.142 59.1349 129.252 59.3444 130.323C59.5539 131.394 60.0715 132.378 60.8316 133.15C61.5918 133.922 62.5604 134.448 63.6148 134.66C64.6692 134.873 65.7621 134.763 66.7551 134.345C67.7481 133.927 68.5966 133.219 69.1933 132.31C69.7899 131.402 70.1079 130.334 70.1069 129.242C70.1057 127.78 69.5333 126.379 68.5156 125.345C67.4978 124.311 66.1178 123.73 64.6784 123.729ZM64.6784 131.336C64.2705 131.337 63.8714 131.215 63.5317 130.986C63.1921 130.756 62.9271 130.43 62.7703 130.047C62.6135 129.665 62.572 129.243 62.651 128.837C62.73 128.43 62.926 128.057 63.2141 127.763C63.5022 127.47 63.8696 127.27 64.2696 127.189C64.6697 127.108 65.0844 127.149 65.4614 127.307C65.8384 127.466 66.1607 127.734 66.3874 128.079C66.6141 128.423 66.7352 128.828 66.7352 129.242C66.7352 129.797 66.5186 130.329 66.1331 130.721C65.7475 131.114 65.2243 131.335 64.6784 131.336Z" fill="white" fill-opacity="0.5"/>
<path id="Vector_9" d="M80.7183 108.032C80.3542 107.769 79.902 107.663 79.4612 107.739C79.0204 107.814 78.6271 108.064 78.3677 108.433C78.0186 108.932 77.5763 109.356 77.0658 109.681C76.5554 110.006 75.9869 110.226 75.3929 110.328C74.7988 110.429 74.1909 110.411 73.6037 110.274C73.0166 110.137 72.4618 109.884 71.971 109.529C71.791 109.393 71.586 109.294 71.368 109.239C71.1499 109.184 70.9232 109.174 70.7012 109.209C70.4792 109.244 70.2664 109.324 70.0752 109.444C69.8841 109.564 69.7185 109.721 69.5881 109.907C69.4578 110.093 69.3653 110.304 69.3162 110.526C69.2671 110.749 69.2623 110.979 69.3021 111.204C69.3419 111.429 69.4255 111.643 69.5479 111.834C69.6704 112.026 69.8294 112.19 70.0153 112.318C71.736 113.56 73.8717 114.058 75.9534 113.702C78.0351 113.346 79.8926 112.166 81.1181 110.42C81.2462 110.236 81.3375 110.029 81.3867 109.81C81.4359 109.591 81.4422 109.364 81.405 109.142C81.3679 108.92 81.2882 108.708 81.1703 108.518C81.0525 108.327 80.8989 108.162 80.7183 108.032Z" fill="white" fill-opacity="0.5"/>
<path id="Vector_10" d="M150.104 122.603C149.743 122.336 149.291 122.226 148.85 122.296C148.408 122.367 148.012 122.613 147.749 122.98C147.486 123.347 147.377 123.806 147.446 124.254C147.516 124.703 147.758 125.105 148.12 125.373C149.102 126.101 149.759 127.195 149.948 128.415C150.136 129.635 149.841 130.881 149.126 131.88C148.863 132.247 148.754 132.705 148.824 133.154C148.893 133.603 149.136 134.005 149.497 134.272C149.859 134.539 150.31 134.65 150.752 134.579C151.193 134.509 151.589 134.263 151.853 133.895C153.091 132.161 153.603 129.999 153.275 127.882C152.947 125.766 151.807 123.868 150.104 122.603Z" fill="white" fill-opacity="0.5"/>
<path id="Vector_11" d="M113.155 94.1621C113.602 94.1842 114.039 94.0249 114.371 93.7194C114.702 93.4138 114.901 92.987 114.922 92.5329C114.944 92.0787 114.787 91.6344 114.487 91.2977C114.186 90.961 113.766 90.7594 113.318 90.7373C112.108 90.6125 110.997 90.005 110.227 89.0483C109.458 88.0915 109.093 86.8637 109.214 85.6344C109.259 85.1802 109.124 84.7266 108.84 84.3734C108.555 84.0201 108.144 83.7961 107.697 83.7507C107.25 83.7053 106.804 83.8422 106.456 84.1312C106.108 84.4202 105.887 84.8377 105.843 85.2919C105.634 87.4247 106.267 89.5544 107.603 91.2136C108.938 92.8729 110.867 93.9263 112.967 94.1426C113.029 94.1548 113.092 94.1614 113.155 94.1621Z" fill="white" fill-opacity="0.5"/>
<path id="Vector_12" d="M52.5541 72.186C51.6327 71.6851 50.6231 71.3736 49.583 71.2694C48.543 71.1653 47.4929 71.2705 46.493 71.5791C45.493 71.8876 44.5628 72.3935 43.7555 73.0677C42.9483 73.7419 42.2798 74.5712 41.7885 75.5081C41.5787 75.9092 41.5338 76.3785 41.6638 76.8131C41.7938 77.2478 42.0881 77.6124 42.4822 77.8272C42.7249 77.9597 42.9965 78.0287 43.2721 78.0278C43.5777 78.0281 43.8776 77.944 44.1397 77.7846C44.4019 77.6252 44.6165 77.3963 44.7605 77.1226C45.0439 76.5823 45.4294 76.104 45.8949 75.7151C46.3604 75.3262 46.8968 75.0344 47.4735 74.8563C48.0501 74.6781 48.6557 74.6172 49.2556 74.677C49.8554 74.7368 50.4378 74.9161 50.9694 75.2048C51.1653 75.3232 51.3829 75.4 51.609 75.4305C51.835 75.461 52.0648 75.4447 52.2844 75.3824C52.5041 75.3202 52.709 75.2133 52.8868 75.0683C53.0646 74.9233 53.2116 74.7431 53.3189 74.5388C53.4261 74.3344 53.4915 74.11 53.511 73.8793C53.5304 73.6485 53.5036 73.4161 53.4321 73.1962C53.3606 72.9762 53.246 72.7733 53.095 72.5997C52.9441 72.4261 52.7601 72.2853 52.5541 72.186Z" fill="white" fill-opacity="0.5"/>
<path id="Vector_13" d="M88.5119 49.7095C88.3019 49.6382 88.0801 49.6096 87.8592 49.6253C87.6383 49.641 87.4226 49.7008 87.2245 49.8012C87.0263 49.9016 86.8496 50.0407 86.7044 50.2105C86.5591 50.3802 86.4482 50.5774 86.378 50.7907C86.3078 51.004 86.2797 51.2293 86.2952 51.4537C86.3106 51.678 86.3695 51.8971 86.4684 52.0984C86.5672 52.2996 86.7041 52.4791 86.8713 52.6267C87.0384 52.7742 87.2325 52.8868 87.4425 52.9581C88.5957 53.3519 89.5478 54.1945 90.0898 55.3009C90.6317 56.4072 90.719 57.6868 90.3326 58.8586C90.1921 59.2894 90.2251 59.7592 90.4246 60.1654C90.6241 60.5715 90.9737 60.8809 91.3971 61.026C91.5697 61.0838 91.7501 61.1135 91.9318 61.1141C92.2856 61.1149 92.6306 61.0023 92.9177 60.7923C93.2049 60.5824 93.4195 60.2858 93.531 59.9447C94.1998 57.9114 94.0469 55.6915 93.1059 53.7725C92.1649 51.8535 90.5126 50.3922 88.5119 49.7095Z" fill="white" fill-opacity="0.5"/>
<path id="Vector_14" d="M147.118 65.7223C147.719 65.7746 148.304 65.9468 148.839 66.229C149.375 66.5111 149.85 66.8977 150.239 67.3666C150.627 67.8356 150.92 68.3776 151.102 68.9618C151.284 69.5461 151.351 70.161 151.299 70.7714C151.26 71.2236 151.4 71.6729 151.687 72.0206C151.974 72.3683 152.385 72.5859 152.831 72.6257H152.98C153.401 72.6261 153.807 72.4659 154.117 72.1769C154.428 71.8879 154.62 71.4911 154.656 71.065C154.839 68.9309 154.181 66.8102 152.827 65.1683C151.472 63.5264 149.532 62.4975 147.431 62.3073C147.21 62.2877 146.987 62.3126 146.775 62.3805C146.563 62.4485 146.366 62.5581 146.196 62.7033C146.026 62.8485 145.885 63.0262 145.783 63.2265C145.68 63.4268 145.617 63.6456 145.598 63.8704C145.579 64.0953 145.603 64.3219 145.67 64.5371C145.737 64.7524 145.845 64.9521 145.988 65.125C146.131 65.2979 146.306 65.4405 146.503 65.5446C146.7 65.6488 146.916 65.7125 147.137 65.7321L147.118 65.7223Z" fill="white" fill-opacity="0.5"/>
<path id="Vector_15" d="M40.7823 123.836C38.6784 123.66 36.5918 124.34 34.9813 125.726C33.3708 127.112 32.3682 129.092 32.194 131.229C32.158 131.681 32.3001 132.129 32.5891 132.475C32.878 132.82 33.2903 133.036 33.7353 133.073H33.8798C34.3024 133.073 34.7096 132.912 35.0202 132.621C35.3309 132.33 35.5222 131.93 35.5561 131.503C35.6058 130.892 35.7736 130.298 36.0498 129.754C36.326 129.21 36.7052 128.727 37.1657 128.332C37.6261 127.937 38.1587 127.638 38.7331 127.453C39.3074 127.267 39.9121 127.199 40.5126 127.251C40.9597 127.289 41.4032 127.144 41.7456 126.85C42.088 126.555 42.3011 126.135 42.3382 125.68C42.3752 125.226 42.2331 124.776 41.9431 124.428C41.6532 124.08 41.2391 123.864 40.792 123.826L40.7823 123.836Z" fill="white" fill-opacity="0.5"/>
</g>
</g>
</svg>
