<svg width="38" height="43" viewBox="0 0 38 43" fill="none" xmlns="http://www.w3.org/2000/svg">
<g id="1" filter="url(#filter0_d_630_844)">
<g id="Vector">
<path d="M18.9985 34.0498C19.2515 34.0497 19.5002 33.994 19.721 33.8881C24.0516 31.816 27.6586 28.7893 30.1689 25.1209C32.6793 21.4524 34.0019 17.2753 34 13.0215C34 12.8476 33.998 12.6744 33.9941 12.5017C33.8954 8.65108 32.2245 5.40841 29.1581 3.12499C26.446 1.10996 22.8387 0 18.9985 0C15.1583 0 11.5521 1.10996 8.84292 3.12499C5.77353 5.41095 4.09968 8.65108 4.00691 12.5017C4.00691 12.5858 4.00521 12.6718 4.00349 12.7584C4.00175 12.846 4 12.9342 4 13.0215C3.99733 17.3412 5.36178 21.5804 7.94776 25.2869C10.4579 28.8771 14.0184 31.8421 18.2761 33.8881C18.4968 33.994 18.7456 34.0497 18.9985 34.0498ZM18.9985 2.53995C22.1261 2.53995 25.0445 3.42894 27.2148 5.04435C29.6358 6.84433 30.9563 9.44185 31.0333 12.5558C31.0333 12.6327 31.0347 12.7099 31.0362 12.7874C31.0377 12.8653 31.0392 12.9434 31.0392 13.0215C31.0407 16.7017 29.9327 20.3196 27.8229 23.524C25.7132 26.7284 22.6733 29.4102 18.9985 31.3092C15.506 29.4977 12.5827 26.9812 10.4832 23.9789C8.17389 20.6674 6.95546 16.8803 6.95786 13.0215C6.95786 12.8657 6.95786 12.7099 6.96378 12.5558C7.04175 9.44185 8.36228 6.84433 10.7823 5.04435C12.9535 3.42894 15.8709 2.53995 18.9985 2.53995Z" fill="white"/>
<path d="M18.9985 34.0498C19.2515 34.0497 19.5002 33.994 19.721 33.8881C24.0516 31.816 27.6586 28.7893 30.1689 25.1209C32.6793 21.4524 34.0019 17.2753 34 13.0215C34 12.8476 33.998 12.6744 33.9941 12.5017C33.8954 8.65108 32.2245 5.40841 29.1581 3.12499C26.446 1.10996 22.8387 0 18.9985 0C15.1583 0 11.5521 1.10996 8.84292 3.12499C5.77353 5.41095 4.09968 8.65108 4.00691 12.5017C4.00691 12.5858 4.00521 12.6718 4.00349 12.7584C4.00175 12.846 4 12.9342 4 13.0215C3.99733 17.3412 5.36178 21.5804 7.94776 25.2869C10.4579 28.8771 14.0184 31.8421 18.2761 33.8881C18.4968 33.994 18.7456 34.0497 18.9985 34.0498ZM18.9985 2.53995C22.1261 2.53995 25.0445 3.42894 27.2148 5.04435C29.6358 6.84433 30.9563 9.44185 31.0333 12.5558C31.0333 12.6327 31.0347 12.7099 31.0362 12.7874C31.0377 12.8653 31.0392 12.9434 31.0392 13.0215C31.0407 16.7017 29.9327 20.3196 27.8229 23.524C25.7132 26.7284 22.6733 29.4102 18.9985 31.3092C15.506 29.4977 12.5827 26.9812 10.4832 23.9789C8.17389 20.6674 6.95546 16.8803 6.95786 13.0215C6.95786 12.8657 6.95786 12.7099 6.96378 12.5558C7.04175 9.44185 8.36228 6.84433 10.7823 5.04435C12.9535 3.42894 15.8709 2.53995 18.9985 2.53995Z" stroke="white"/>
</g>
<g id="Vector_2">
<path d="M18.9597 21.0479C20.8008 21.0479 22.6006 20.5795 24.1314 19.7021C25.6623 18.8246 26.8554 17.5774 27.56 16.1182C28.2645 14.6591 28.4489 13.0534 28.0897 11.5044C27.7305 9.9553 26.8439 8.5324 25.5421 7.4156C24.2402 6.29879 22.5815 5.53823 20.7758 5.23011C18.9701 4.92198 17.0984 5.08012 15.3974 5.68453C13.6964 6.28894 12.2426 7.31248 11.2197 8.62571C10.1969 9.93894 9.65093 11.4829 9.65093 13.0623C9.65354 15.1795 10.6351 17.2094 12.3803 18.7065C14.1255 20.2036 16.4917 21.0456 18.9597 21.0479ZM18.9597 7.61746C20.2153 7.61746 21.4427 7.93687 22.4866 8.53528C23.5305 9.1337 24.3442 9.98424 24.8246 10.9794C25.3051 11.9745 25.4307 13.0695 25.1857 14.1258C24.9407 15.1822 24.336 16.1525 23.4481 16.9141C22.5602 17.6756 21.429 18.1942 20.1976 18.4043C18.9661 18.6143 17.6897 18.5063 16.5298 18.094C15.3699 17.6817 14.3785 16.9836 13.6811 16.088C12.9837 15.1923 12.6116 14.1394 12.6117 13.0623C12.6146 11.6191 13.2845 10.2357 14.4744 9.21553C15.6644 8.19535 17.2774 7.62157 18.9597 7.62V7.61746Z" fill="white"/>
<path d="M18.9597 21.0479C20.8008 21.0479 22.6006 20.5795 24.1314 19.7021C25.6623 18.8246 26.8554 17.5774 27.56 16.1182C28.2645 14.6591 28.4489 13.0534 28.0897 11.5044C27.7305 9.9553 26.8439 8.5324 25.5421 7.4156C24.2402 6.29879 22.5815 5.53823 20.7758 5.23011C18.9701 4.92198 17.0984 5.08012 15.3974 5.68453C13.6964 6.28894 12.2426 7.31248 11.2197 8.62571C10.1969 9.93894 9.65093 11.4829 9.65093 13.0623C9.65354 15.1795 10.6351 17.2094 12.3803 18.7065C14.1255 20.2036 16.4917 21.0456 18.9597 21.0479ZM18.9597 7.61746C20.2153 7.61746 21.4427 7.93687 22.4866 8.53528C23.5305 9.1337 24.3442 9.98424 24.8246 10.9794C25.3051 11.9745 25.4307 13.0695 25.1857 14.1258C24.9407 15.1822 24.336 16.1525 23.4481 16.9141C22.5602 17.6756 21.429 18.1942 20.1976 18.4043C18.9661 18.6143 17.6897 18.5063 16.5298 18.094C15.3699 17.6817 14.3785 16.9836 13.6811 16.088C12.9837 15.1923 12.6116 14.1394 12.6117 13.0623C12.6146 11.6191 13.2845 10.2357 14.4744 9.21553C15.6644 8.19535 17.2774 7.62157 18.9597 7.62V7.61746Z" stroke="white"/>
</g>
</g>
<defs>
<filter id="filter0_d_630_844" x="0" y="0" width="38" height="42.0498" filterUnits="userSpaceOnUse" color-interpolation-filters="sRGB">
<feFlood flood-opacity="0" result="BackgroundImageFix"/>
<feColorMatrix in="SourceAlpha" type="matrix" values="0 0 0 0 0 0 0 0 0 0 0 0 0 0 0 0 0 0 127 0" result="hardAlpha"/>
<feOffset dy="4"/>
<feGaussianBlur stdDeviation="2"/>
<feComposite in2="hardAlpha" operator="out"/>
<feColorMatrix type="matrix" values="0 0 0 0 0 0 0 0 0 0 0 0 0 0 0 0 0 0 0.25 0"/>
<feBlend mode="normal" in2="BackgroundImageFix" result="effect1_dropShadow_630_844"/>
<feBlend mode="normal" in="SourceGraphic" in2="effect1_dropShadow_630_844" result="shape"/>
</filter>
</defs>
</svg>
