<svg width="48" height="74" viewBox="0 0 48 74" fill="none" xmlns="http://www.w3.org/2000/svg">
<g id="Group 44">
<g id="Vector">
<path d="M26.5813 62.9949C26.5813 68.8694 20.6271 73.6274 13.2906 73.6274C5.9542 73.6274 0 68.8694 0 62.9949C0 57.1205 5.9542 52.3624 13.2906 52.3624C20.6271 52.3624 26.5813 57.1205 26.5813 62.9949Z" fill="white" fill-opacity="0.9"/>
<path d="M26.5813 62.9949C26.5813 68.8694 20.6271 73.6274 13.2906 73.6274C5.9542 73.6274 0 68.8694 0 62.9949C0 57.1205 5.9542 52.3624 13.2906 52.3624C20.6271 52.3624 26.5813 57.1205 26.5813 62.9949Z" stroke="black"/>
</g>
<g id="Vector_2">
<path d="M26.5813 9.8324V62.9949H21.265V9.8324H26.5813Z" fill="white" fill-opacity="0.9"/>
<path d="M26.5813 9.8324V62.9949H21.265V9.8324H26.5813Z" stroke="black"/>
</g>
<g id="Vector_3">
<path d="M21.265 8.87535C21.2658 7.64681 21.692 6.45644 22.4712 5.50663C23.2504 4.55683 24.3346 3.90622 25.5393 3.66543L41.488 0.475674C42.259 0.321573 43.0546 0.340396 43.8174 0.530788C44.5802 0.72118 45.2913 1.0784 45.8995 1.57671C46.5076 2.07502 46.9977 2.70202 47.3343 3.41253C47.6709 4.12304 47.8458 4.89938 47.8463 5.6856V15.1485L21.265 20.4648V8.87535Z" fill="white" fill-opacity="0.9"/>
<path d="M21.265 8.87535C21.2658 7.64681 21.692 6.45644 22.4712 5.50663C23.2504 4.55683 24.3346 3.90622 25.5393 3.66543L41.488 0.475674C42.259 0.321573 43.0546 0.340396 43.8174 0.530788C44.5802 0.72118 45.2913 1.0784 45.8995 1.57671C46.5076 2.07502 46.9977 2.70202 47.3343 3.41253C47.6709 4.12304 47.8458 4.89938 47.8463 5.6856V15.1485L21.265 20.4648V8.87535Z" stroke="black"/>
</g>
</g>
</svg>
