<svg width="48" height="74" viewBox="0 0 48 74" fill="none" xmlns="http://www.w3.org/2000/svg">
    <g id="Group 44">
        <g id="Vector">
            <path
                d="M26.5813 62.9958C26.5813 68.8702 20.6271 73.6283 13.2906 73.6283C5.9542 73.6283 0 68.8702 0 62.9958C0 57.1213 5.9542 52.3633 13.2906 52.3633C20.6271 52.3633 26.5813 57.1213 26.5813 62.9958Z"
                fill="white" fill-opacity="1"/>
            <path
                d="M26.5813 62.9958C26.5813 68.8702 20.6271 73.6283 13.2906 73.6283C5.9542 73.6283 0 68.8702 0 62.9958C0 57.1213 5.9542 52.3633 13.2906 52.3633C20.6271 52.3633 26.5813 57.1213 26.5813 62.9958Z"
                stroke=""/>
        </g>
        <g id="Vector_2">
            <path d="M26.5809 9.83301V62.9955H21.2646V9.83301H26.5809Z" fill="white" fill-opacity="1"/>
            <path d="M26.5809 9.83301V62.9955H21.2646V9.83301H26.5809Z" stroke=""/>
        </g>
        <g id="Vector_3">
            <path
                d="M21.2646 8.87584C21.2654 7.6473 21.6916 6.45693 22.4708 5.50712C23.2501 4.55732 24.3342 3.90671 25.5389 3.66591L41.4877 0.476162C42.2587 0.322061 43.0542 0.340885 43.817 0.531276C44.5799 0.721668 45.291 1.07889 45.8991 1.5772C46.5073 2.07551 46.9973 2.70251 47.3339 3.41302C47.6706 4.12353 47.8454 4.89986 47.8459 5.68609V15.149L21.2646 20.4653V8.87584Z"
                fill="white" fill-opacity="1"/>
            <path
                d="M21.2646 8.87584C21.2654 7.6473 21.6916 6.45693 22.4708 5.50712C23.2501 4.55732 24.3342 3.90671 25.5389 3.66591L41.4877 0.476162C42.2587 0.322061 43.0542 0.340885 43.817 0.531276C44.5799 0.721668 45.291 1.07889 45.8991 1.5772C46.5073 2.07551 46.9973 2.70251 47.3339 3.41302C47.6706 4.12353 47.8454 4.89986 47.8459 5.68609V15.149L21.2646 20.4653V8.87584Z"
                stroke=""/>
        </g>
    </g>
</svg>
