<svg width="35" height="41" viewBox="0 0 35 41" fill="none" xmlns="http://www.w3.org/2000/svg">
<path id="Vector" d="M33.1806 32.662L31.7876 37.4295C31.6603 37.8726 31.4266 38.2878 31.1014 38.6488C30.7761 39.0097 30.3665 39.3083 29.8988 39.5254C29.431 39.7426 28.9155 39.8735 28.3852 39.9098C27.8549 39.9462 27.3214 39.8871 26.8191 39.7363C21.272 37.9747 16.2828 35.122 12.2523 31.4073C8.48777 28.0014 5.64291 23.9269 3.91972 19.4734C1.99932 14.6519 1.42957 9.51119 2.25661 4.46781C2.33871 4.01836 2.52903 3.58858 2.81545 3.20585C3.10187 2.82311 3.47812 2.4958 3.92024 2.24475C4.36236 1.9937 4.86066 1.82441 5.38342 1.74767C5.90618 1.67093 6.44194 1.68841 6.9566 1.799L12.5159 2.9984C13.4175 3.18484 14.2095 3.64604 14.7445 4.29606C15.2794 4.94608 15.5207 5.74055 15.4235 6.53139C15.2123 8.10773 15.2097 9.69967 15.4158 11.2768C15.4989 11.8994 15.3723 12.5293 15.0508 13.0917C14.7294 13.6541 14.2266 14.1255 13.6021 14.4501L10.6589 15.9606C12.1344 20.5083 15.0132 24.6313 18.9915 27.8945L21.9347 26.384C22.5634 26.0654 23.2855 25.9082 24.0155 25.931C24.7456 25.9537 25.4529 26.1555 26.0537 26.5124C27.5778 27.4132 29.2156 28.1632 30.9359 28.7483C31.8043 29.0514 32.5127 29.6176 32.9266 30.3392C33.3405 31.0608 33.4309 31.8875 33.1806 32.662Z" stroke="white" stroke-width="2" stroke-linecap="round" stroke-linejoin="round"/>
</svg>
